<?xml version="1.0" encoding="UTF-8" standalone="no" ?>
<!DOCTYPE svg PUBLIC "-//W3C//DTD SVG 1.1//EN" "http://www.w3.org/Graphics/SVG/1.1/DTD/svg11.dtd">
<svg xmlns="http://www.w3.org/2000/svg" xmlns:xlink="http://www.w3.org/1999/xlink" version="1.1" width="400" height="400" viewBox="0 0 400 400" xml:space="preserve">
<desc>Created with Fabric.js 3.6.2</desc>
<defs>
</defs>
<g transform="matrix(1.04 0 0 1.04 200 200)" id="Layer_1"  >
<path style="stroke: none; stroke-width: 1; stroke-dasharray: none; stroke-linecap: butt; stroke-dashoffset: 0; stroke-linejoin: miter; stroke-miterlimit: 4; fill: rgb(0,0,0); fill-rule: nonzero; opacity: 1;"  transform=" translate(-256, -256)" d="M 288 192 v -38.1 c 0 -17.2 3.8 -25.9 30.5 -25.9 H 352 V 64 h -55.9 c -68.5 0 -91.1 31.4 -91.1 85.3 V 192 h -45 v 64 h 45 v 192 h 83 V 256 h 56.4 l 7.6 -64 H 288 z M 330.2 240 h -41.1 H 272 v 15.5 V 432 h -51 V 255.5 V 240 h -14.9 H 176 v -32 h 30.1 H 221 v -16.5 v -42.2 c 0 -24.5 5.4 -41.2 15.5 -51.8 C 247.7 85.5 267.6 80 296.1 80 H 336 v 32 h -17.5 c -12 0 -27.5 1.1 -37.1 11.7 c -8.1 9 -9.4 20.1 -9.4 30.1 v 37.6 V 208 h 17.1 H 334 L 330.2 240 z" stroke-linecap="round" />
</g>
</svg>